<svg class="youtube" xmlns="http://www.w3.org/2000/svg" width="28.525" height="20.918" viewBox="0 0 28.525 20.918">
  <g id="Group_544" data-name="Group 544" transform="translate(0 0)">
    <path id="Path_91" data-name="Path 91" d="M-239.065,12.452A6.688,6.688,0,0,0-240.209,9.5a4.086,4.086,0,0,0-2.844-1.269c-3.99-.293-9.973-.293-9.973-.293h-.032s-5.967,0-9.957.293A4.067,4.067,0,0,0-265.874,9.5a6.687,6.687,0,0,0-1.144,2.953,45.437,45.437,0,0,0-.294,4.793v2.273a44.673,44.673,0,0,0,.294,4.793,6.789,6.789,0,0,0,1.144,2.968,4.664,4.664,0,0,0,3.154,1.268c2.273.232,9.695.31,9.695.31s5.983-.031,9.973-.31a4.009,4.009,0,0,0,2.844-1.268,6.789,6.789,0,0,0,1.144-2.968,47.3,47.3,0,0,0,.278-4.793V17.245c0-2.38-.278-4.793-.278-4.793Zm-9.215,5.628-7.715,4.159V13.89l3.495,1.9Z" transform="translate(267.312 -7.937)" fill-rule="evenodd"/>
  </g>
</svg>
