<svg class="zalo" xmlns="http://www.w3.org/2000/svg" width="51.627" height="20.566" viewBox="0 0 51.627 20.566">
  <g id="Group_796" data-name="Group 796" transform="translate(0 0)">
    <g id="Group_1111" data-name="Group 1111" transform="translate(0 0)">
      <g id="Group_1108" data-name="Group 1108">
        <path id="Path_1230" data-name="Path 1230" d="M237.364-137.684c2.562,0,4.97-.018,7.362,0,1.341.016,2.07.576,2.205,1.645a1.9,1.9,0,0,1-2.086,2.256c-2.747.034-5.479.016-8.226.016-.8,0-1.579.034-2.376-.016a2.491,2.491,0,0,1-2.425-1.273,2.534,2.534,0,0,1,.508-2.765c2.614-3.325,5.242-6.666,7.872-9.991.153-.205.306-.408.459-.594-.171-.288-.408-.153-.612-.169-1.833-.018-3.681,0-5.512-.018a6.209,6.209,0,0,1-1.256-.135,1.784,1.784,0,0,1-1.339-2.138,1.787,1.787,0,0,1,1.305-1.323,5.245,5.245,0,0,1,1.256-.153c3.019-.016,6.056-.016,9.074,0a5.664,5.664,0,0,1,1.595.187,1.852,1.852,0,0,1,1.188,2.579,12,12,0,0,1-1.7,2.628q-3.334,4.25-6.667,8.448c-.187.221-.356.441-.628.815Z" transform="translate(-231.595 153.835)"/>
        <g id="Group_1107" data-name="Group 1107" transform="translate(15.15)">
          <path id="Path_1231" data-name="Path 1231" d="M268.877-142.7a7.029,7.029,0,0,0-7.618-7.006c-4.07.119-6.937,3.375-6.8,7.735a6.922,6.922,0,0,0,7.872,7.006C266.382-135.373,269.012-138.41,268.877-142.7Zm-5.038,2.731a2.765,2.765,0,0,1-1.278.9,2.766,2.766,0,0,1-1.743.026l-.05-.015,0,0a2.78,2.78,0,0,1-.843-.456,2.13,2.13,0,0,1-.475-.491,3.749,3.749,0,0,1-.729-2.374c0-2.12,1.289-3.512,3.121-3.409a2.063,2.063,0,0,1,.223.015,2.576,2.576,0,0,1,1.447.666,2.708,2.708,0,0,1,.348.387,3.974,3.974,0,0,1,.723,2.378A3.927,3.927,0,0,1,263.839-139.971Z" transform="translate(-232.405 155.493)"/>
          <path id="Path_1232" data-name="Path 1232" d="M255.182-151.075a2.022,2.022,0,0,0-2.155-2.189,2.016,2.016,0,0,0-2.1,2.155c-.018.8,0,1.577,0,2.374v13.486a2.2,2.2,0,0,0,1.492,2.189,2.657,2.657,0,0,0,.628.067,2.2,2.2,0,0,0,2.137-2.238c.018-2.63,0-5.26,0-7.888C255.182-145.766,255.2-148.429,255.182-151.075Z" transform="translate(-234.622 153.264)"/>
          <path id="Path_1233" data-name="Path 1233" d="M252.728-149.391a2.606,2.606,0,0,0-1.526,1.154h0a5.372,5.372,0,0,0-6.768-.594,7.035,7.035,0,0,0-3.462,7.379c.34,2.868,1.579,5.226,4.6,6.208a5.193,5.193,0,0,0,5.174-.864c.408-.322.527-.255.815.1a2.062,2.062,0,0,0,2.374.662,2.006,2.006,0,0,0,1.408-1.917c.034-3.393.05-6.786,0-10.178A2.083,2.083,0,0,0,252.728-149.391Zm-2.358,9.4a2.938,2.938,0,0,1-.56.56,2.806,2.806,0,0,1-1.68.55,2.81,2.81,0,0,1-1.68-.55,2.936,2.936,0,0,1-.56-.56,3.831,3.831,0,0,1-.695-2.054h0c-.018-2.391,1.289-3.833,3.138-3.732a2.665,2.665,0,0,1,.734.137,2.565,2.565,0,0,1,1.3.949A4.23,4.23,0,0,1,250.37-139.992Z" transform="translate(-240.904 155.464)"/>
        </g>
      </g>
    </g>
  </g>
</svg>
