<svg class="instagram" xmlns="http://www.w3.org/2000/svg" width="27.12" height="27.119" viewBox="0 0 27.12 27.119">
  <g id="Group_545" data-name="Group 545" transform="translate(0 0)">
    <g id="Group_542" data-name="Group 542">
      <path id="Path_93" data-name="Path 93" d="M64.2,407.828a7.446,7.446,0,1,0,7.447,7.446A7.455,7.455,0,0,0,64.2,407.828Zm0,12.528a5.081,5.081,0,1,1,5.082-5.081A5.088,5.088,0,0,1,64.2,420.356Z" transform="translate(-50.641 -401.715)" fill-rule="evenodd"/>
      <path id="Path_94" data-name="Path 94" d="M72.163,402.659H58.127a6.55,6.55,0,0,0-6.542,6.542v14.036a6.549,6.549,0,0,0,6.542,6.541H72.163a6.549,6.549,0,0,0,6.542-6.541V409.2A6.55,6.55,0,0,0,72.163,402.659Zm4.177,20.577a4.181,4.181,0,0,1-4.177,4.176H58.127a4.181,4.181,0,0,1-4.177-4.176V409.2a4.181,4.181,0,0,1,4.177-4.177H72.163A4.182,4.182,0,0,1,76.34,409.2Z" transform="translate(-51.585 -402.659)" fill-rule="evenodd"/>
      <path id="Path_95" data-name="Path 95" d="M69.491,406.636A1.362,1.362,0,1,0,70.853,408,1.362,1.362,0,0,0,69.491,406.636Z" transform="translate(-48.564 -401.933)" fill-rule="evenodd"/>
    </g>
  </g>
</svg>
